<svg xmlns="http://www.w3.org/2000/svg" width="880" height="250" viewBox="0 0 880 250"><rect x="0.5" y="0.5" width="879" height="249" rx="12" fill="#ffffff" stroke="#d8dee4"/><defs><linearGradient id="fade" x1="0" x2="1"><stop offset="0" stop-color="#fff" stop-opacity="0"/><stop offset="1" stop-color="#fff" stop-opacity="1"/></linearGradient><mask id="m"><rect x="520" y="0" width="360" height="250" fill="url(#fade)"/></mask></defs><g fill="#d8dee4" mask="url(#m)"><circle cx="540" cy="26" r="1.2"/><circle cx="540" cy="44" r="1.2"/><circle cx="540" cy="62" r="1.2"/><circle cx="540" cy="80" r="1.2"/><circle cx="540" cy="98" r="1.2"/><circle cx="540" cy="116" r="1.2"/><circle cx="540" cy="134" r="1.2"/><circle cx="540" cy="152" r="1.2"/><circle cx="540" cy="170" r="1.2"/><circle cx="540" cy="188" r="1.2"/><circle cx="540" cy="206" r="1.2"/><circle cx="540" cy="224" r="1.2"/><circle cx="558" cy="26" r="1.2"/><circle cx="558" cy="44" r="1.2"/><circle cx="558" cy="62" r="1.2"/><circle cx="558" cy="80" r="1.2"/><circle cx="558" cy="98" r="1.2"/><circle cx="558" cy="116" r="1.2"/><circle cx="558" cy="134" r="1.2"/><circle cx="558" cy="152" r="1.2"/><circle cx="558" cy="170" r="1.2"/><circle cx="558" cy="188" r="1.2"/><circle cx="558" cy="206" r="1.2"/><circle cx="558" cy="224" r="1.2"/><circle cx="576" cy="26" r="1.2"/><circle cx="576" cy="44" r="1.2"/><circle cx="576" cy="62" r="1.2"/><circle cx="576" cy="80" r="1.2"/><circle cx="576" cy="98" r="1.2"/><circle cx="576" cy="116" r="1.2"/><circle cx="576" cy="134" r="1.2"/><circle cx="576" cy="152" r="1.2"/><circle cx="576" cy="170" r="1.2"/><circle cx="576" cy="188" r="1.2"/><circle cx="576" cy="206" r="1.2"/><circle cx="576" cy="224" r="1.2"/><circle cx="594" cy="26" r="1.2"/><circle cx="594" cy="44" r="1.2"/><circle cx="594" cy="62" r="1.2"/><circle cx="594" cy="80" r="1.2"/><circle cx="594" cy="98" r="1.2"/><circle cx="594" cy="116" r="1.2"/><circle cx="594" cy="134" r="1.2"/><circle cx="594" cy="152" r="1.2"/><circle cx="594" cy="170" r="1.2"/><circle cx="594" cy="188" r="1.2"/><circle cx="594" cy="206" r="1.2"/><circle cx="594" cy="224" r="1.2"/><circle cx="612" cy="26" r="1.2"/><circle cx="612" cy="44" r="1.2"/><circle cx="612" cy="62" r="1.2"/><circle cx="612" cy="80" r="1.2"/><circle cx="612" cy="98" r="1.2"/><circle cx="612" cy="116" r="1.2"/><circle cx="612" cy="134" r="1.2"/><circle cx="612" cy="152" r="1.2"/><circle cx="612" cy="170" r="1.2"/><circle cx="612" cy="188" r="1.2"/><circle cx="612" cy="206" r="1.2"/><circle cx="612" cy="224" r="1.2"/><circle cx="630" cy="26" r="1.2"/><circle cx="630" cy="44" r="1.2"/><circle cx="630" cy="62" r="1.2"/><circle cx="630" cy="80" r="1.2"/><circle cx="630" cy="98" r="1.2"/><circle cx="630" cy="116" r="1.2"/><circle cx="630" cy="134" r="1.2"/><circle cx="630" cy="152" r="1.2"/><circle cx="630" cy="170" r="1.2"/><circle cx="630" cy="188" r="1.2"/><circle cx="630" cy="206" r="1.2"/><circle cx="630" cy="224" r="1.2"/><circle cx="648" cy="26" r="1.2"/><circle cx="648" cy="44" r="1.2"/><circle cx="648" cy="62" r="1.2"/><circle cx="648" cy="80" r="1.2"/><circle cx="648" cy="98" r="1.2"/><circle cx="648" cy="116" r="1.2"/><circle cx="648" cy="134" r="1.2"/><circle cx="648" cy="152" r="1.2"/><circle cx="648" cy="170" r="1.2"/><circle cx="648" cy="188" r="1.2"/><circle cx="648" cy="206" r="1.2"/><circle cx="648" cy="224" r="1.2"/><circle cx="666" cy="26" r="1.2"/><circle cx="666" cy="44" r="1.2"/><circle cx="666" cy="62" r="1.2"/><circle cx="666" cy="80" r="1.2"/><circle cx="666" cy="98" r="1.2"/><circle cx="666" cy="116" r="1.2"/><circle cx="666" cy="134" r="1.2"/><circle cx="666" cy="152" r="1.2"/><circle cx="666" cy="170" r="1.2"/><circle cx="666" cy="188" r="1.2"/><circle cx="666" cy="206" r="1.2"/><circle cx="666" cy="224" r="1.2"/><circle cx="684" cy="26" r="1.2"/><circle cx="684" cy="44" r="1.2"/><circle cx="684" cy="62" r="1.2"/><circle cx="684" cy="80" r="1.2"/><circle cx="684" cy="98" r="1.2"/><circle cx="684" cy="116" r="1.2"/><circle cx="684" cy="134" r="1.2"/><circle cx="684" cy="152" r="1.2"/><circle cx="684" cy="170" r="1.2"/><circle cx="684" cy="188" r="1.2"/><circle cx="684" cy="206" r="1.2"/><circle cx="684" cy="224" r="1.2"/><circle cx="702" cy="26" r="1.2"/><circle cx="702" cy="44" r="1.2"/><circle cx="702" cy="62" r="1.2"/><circle cx="702" cy="80" r="1.2"/><circle cx="702" cy="98" r="1.2"/><circle cx="702" cy="116" r="1.2"/><circle cx="702" cy="134" r="1.2"/><circle cx="702" cy="152" r="1.2"/><circle cx="702" cy="170" r="1.2"/><circle cx="702" cy="188" r="1.2"/><circle cx="702" cy="206" r="1.2"/><circle cx="702" cy="224" r="1.2"/><circle cx="720" cy="26" r="1.2"/><circle cx="720" cy="44" r="1.2"/><circle cx="720" cy="62" r="1.2"/><circle cx="720" cy="80" r="1.2"/><circle cx="720" cy="98" r="1.2"/><circle cx="720" cy="116" r="1.2"/><circle cx="720" cy="134" r="1.2"/><circle cx="720" cy="152" r="1.2"/><circle cx="720" cy="170" r="1.2"/><circle cx="720" cy="188" r="1.2"/><circle cx="720" cy="206" r="1.2"/><circle cx="720" cy="224" r="1.2"/><circle cx="738" cy="26" r="1.2"/><circle cx="738" cy="44" r="1.2"/><circle cx="738" cy="62" r="1.2"/><circle cx="738" cy="80" r="1.2"/><circle cx="738" cy="98" r="1.2"/><circle cx="738" cy="116" r="1.2"/><circle cx="738" cy="134" r="1.2"/><circle cx="738" cy="152" r="1.2"/><circle cx="738" cy="170" r="1.2"/><circle cx="738" cy="188" r="1.2"/><circle cx="738" cy="206" r="1.2"/><circle cx="738" cy="224" r="1.2"/><circle cx="756" cy="26" r="1.2"/><circle cx="756" cy="44" r="1.2"/><circle cx="756" cy="62" r="1.2"/><circle cx="756" cy="80" r="1.2"/><circle cx="756" cy="98" r="1.2"/><circle cx="756" cy="116" r="1.2"/><circle cx="756" cy="134" r="1.2"/><circle cx="756" cy="152" r="1.2"/><circle cx="756" cy="170" r="1.2"/><circle cx="756" cy="188" r="1.2"/><circle cx="756" cy="206" r="1.2"/><circle cx="756" cy="224" r="1.2"/><circle cx="774" cy="26" r="1.2"/><circle cx="774" cy="44" r="1.2"/><circle cx="774" cy="62" r="1.2"/><circle cx="774" cy="80" r="1.2"/><circle cx="774" cy="98" r="1.2"/><circle cx="774" cy="116" r="1.2"/><circle cx="774" cy="134" r="1.2"/><circle cx="774" cy="152" r="1.2"/><circle cx="774" cy="170" r="1.2"/><circle cx="774" cy="188" r="1.2"/><circle cx="774" cy="206" r="1.2"/><circle cx="774" cy="224" r="1.2"/><circle cx="792" cy="26" r="1.2"/><circle cx="792" cy="44" r="1.2"/><circle cx="792" cy="62" r="1.2"/><circle cx="792" cy="80" r="1.2"/><circle cx="792" cy="98" r="1.2"/><circle cx="792" cy="116" r="1.2"/><circle cx="792" cy="134" r="1.2"/><circle cx="792" cy="152" r="1.2"/><circle cx="792" cy="170" r="1.2"/><circle cx="792" cy="188" r="1.2"/><circle cx="792" cy="206" r="1.2"/><circle cx="792" cy="224" r="1.2"/><circle cx="810" cy="26" r="1.2"/><circle cx="810" cy="44" r="1.2"/><circle cx="810" cy="62" r="1.2"/><circle cx="810" cy="80" r="1.2"/><circle cx="810" cy="98" r="1.2"/><circle cx="810" cy="116" r="1.2"/><circle cx="810" cy="134" r="1.2"/><circle cx="810" cy="152" r="1.2"/><circle cx="810" cy="170" r="1.2"/><circle cx="810" cy="188" r="1.2"/><circle cx="810" cy="206" r="1.2"/><circle cx="810" cy="224" r="1.2"/><circle cx="828" cy="26" r="1.2"/><circle cx="828" cy="44" r="1.2"/><circle cx="828" cy="62" r="1.2"/><circle cx="828" cy="80" r="1.2"/><circle cx="828" cy="98" r="1.2"/><circle cx="828" cy="116" r="1.2"/><circle cx="828" cy="134" r="1.2"/><circle cx="828" cy="152" r="1.2"/><circle cx="828" cy="170" r="1.2"/><circle cx="828" cy="188" r="1.2"/><circle cx="828" cy="206" r="1.2"/><circle cx="828" cy="224" r="1.2"/><circle cx="846" cy="26" r="1.2"/><circle cx="846" cy="44" r="1.2"/><circle cx="846" cy="62" r="1.2"/><circle cx="846" cy="80" r="1.2"/><circle cx="846" cy="98" r="1.2"/><circle cx="846" cy="116" r="1.2"/><circle cx="846" cy="134" r="1.2"/><circle cx="846" cy="152" r="1.2"/><circle cx="846" cy="170" r="1.2"/><circle cx="846" cy="188" r="1.2"/><circle cx="846" cy="206" r="1.2"/><circle cx="846" cy="224" r="1.2"/></g><text x="44" y="62" font-family="ui-monospace, SFMono-Regular, 'SF Mono', Menlo, Consolas, monospace" font-size="11" letter-spacing="1.6" fill="#818b98">SOFTWARE ENGINEER  /  DATA SCIENCE</text><text x="42" y="116" font-family="-apple-system, BlinkMacSystemFont, 'Segoe UI', 'Helvetica Neue', Helvetica, Arial, sans-serif" font-size="46" font-weight="600" letter-spacing="-1.2" fill="#1f2328">Rajveer Kharadepatil</text><text x="44" y="150" font-family="-apple-system, BlinkMacSystemFont, 'Segoe UI', 'Helvetica Neue', Helvetica, Arial, sans-serif" font-size="16" fill="#59636e">Backend systems in TypeScript and Python. Applied NLP research on tokenization and LLMs.</text><line x1="44" x2="836" y1="182" y2="182" stroke="#eaeef2"/><text x="44" y="214.5" font-family="-apple-system, BlinkMacSystemFont, 'Segoe UI', 'Helvetica Neue', Helvetica, Arial, sans-serif" font-size="13" fill="#59636e">B.Tech CSE ’27</text><circle cx="140.429296875" cy="210" r="1.6" fill="#818b98"/><text x="149.429296875" y="214.5" font-family="-apple-system, BlinkMacSystemFont, 'Segoe UI', 'Helvetica Neue', Helvetica, Arial, sans-serif" font-size="13" fill="#59636e">B.S. Data Science, IIT Madras</text><circle cx="330.679296875" cy="210" r="1.6" fill="#818b98"/><text x="339.679296875" y="214.5" font-family="-apple-system, BlinkMacSystemFont, 'Segoe UI', 'Helvetica Neue', Helvetica, Arial, sans-serif" font-size="13" fill="#59636e">Previously React Developer, Caskey</text><rect x="587.859140625" y="196" width="248.14085937500002" height="28" rx="14" fill="#f6f8fa" stroke="#d8dee4"/><circle cx="603.859140625" cy="210" r="3.5" fill="#1a7f37"/><text x="614.859140625" y="214.5" font-family="-apple-system, BlinkMacSystemFont, 'Segoe UI', 'Helvetica Neue', Helvetica, Arial, sans-serif" font-size="12.5" fill="#1f2328">Open to internships · Jan – Jun 2027</text></svg>